<svg xmlns="http://www.w3.org/2000/svg" viewBox="0 0 500 500" width="100%" height="100%">
  <defs>
    <linearGradient id="bg-prod-ph" x1="0%" y1="0%" x2="100%" y2="100%">
      <stop offset="0%" stop-color="#F1F5F9" />
      <stop offset="100%" stop-color="#E2E8F0" />
    </linearGradient>
    <linearGradient id="grad-badge" x1="0%" y1="0%" x2="100%" y2="100%">
      <stop offset="0%" stop-color="#3B82F6" />
      <stop offset="100%" stop-color="#1E3A8A" />
    </linearGradient>
  </defs>
  <rect width="100%" height="100%" rx="16" fill="url(#bg-prod-ph)"/>
  <rect x="24" y="24" width="452" height="452" rx="12" fill="#FFFFFF" stroke="#E2E8F0" stroke-width="2"/>
  <circle cx="250" cy="210" r="85" fill="#EEF2FF"/>
  <g transform="translate(205, 165)" stroke="#3B82F6" stroke-width="4" fill="none" stroke-linecap="round" stroke-linejoin="round">
    <path d="M45 5 L85 28 L85 73 L45 95 L5 73 L5 28 Z" fill="#E0E7FF" fill-opacity="0.6"/>
    <polyline points="5,28 45,50 85,28"/>
    <line x1="45" y1="50" x2="45" y2="95"/>
    <line x1="25" y1="39" x2="65" y2="17"/>
  </g>
  <rect x="130" y="325" width="240" height="28" rx="14" fill="url(#grad-badge)"/>
  <text x="50%" y="344" font-size="13" font-weight="700" fill="#FFFFFF" text-anchor="middle" font-family="-apple-system, BlinkMacSystemFont, 'Segoe UI', Roboto, sans-serif" letter-spacing="1">SHOPSPHERE VERIFIED</text>
  <text x="50%" y="390" font-size="20" font-weight="700" fill="#0F172A" text-anchor="middle" font-family="-apple-system, BlinkMacSystemFont, 'Segoe UI', Roboto, sans-serif">ShopSphere Product</text>
  <text x="50%" y="420" font-size="13" fill="#64748B" text-anchor="middle" font-family="-apple-system, BlinkMacSystemFont, 'Segoe UI', Roboto, sans-serif">100% Authentic Guaranteed</text>
</svg>
